<?xml version="1.0" encoding="UTF-8"?>
<svg width="232px" height="61px" viewBox="0 0 232 61" version="1.1" xmlns="http://www.w3.org/2000/svg" xmlns:xlink="http://www.w3.org/1999/xlink">
    <title>LOGO_OMAX technology</title>
    <g id="Page-1" stroke="none" stroke-width="1" fill="none" fill-rule="evenodd">
        <g id="Opt-1---OMAX" transform="translate(-37.000000, -86.000000)" fill-rule="nonzero">
            <g id="LOGO_OMAX-technology" transform="translate(37.277083, 86.772917)">
                <g id="Group" fill="#D7282F">
                    <path d="M39.167074,29.0333559 C39.167074,23.5031929 34.6687028,19.0184696 29.1217103,19.0184696 C23.5747179,19.0184696 19.0763467,23.5031929 19.0763467,29.0333559 C19.0763467,33.5010108 22.0124862,37.2859295 26.0657284,38.574594 L26.0657284,58.0624448 L32.1819724,58.0624448 L32.1819724,38.574594 C36.2309345,37.2859295 39.167074,33.5010108 39.167074,29.0333559 Z" id="Path"></path>
                    <g id="Path">
                        <path d="M21.3276723,0 L0,0 L0,21.2629648 C2.76921614,10.9152446 10.9441819,2.76508152 21.3276723,0 Z"></path>
                        <path d="M58.2391406,21.2629648 L58.2391406,0 L36.9114683,0 C47.2949587,2.76508152 55.4656444,10.9152446 58.2391406,21.2629648 Z"></path>
                        <path d="M36.9114683,58.0624448 L58.2391406,58.0624448 L58.2391406,36.7994799 C55.4656444,47.1514672 47.2949587,55.3016303 36.9114683,58.0624448 Z"></path>
                        <path d="M0,36.7994799 L0,58.0624448 L21.3276723,58.0624448 C10.9441819,55.3016303 2.76921614,47.1514672 0,36.7994799 Z"></path>
                    </g>
                </g>
                <g id="Group" transform="translate(76.865902, 17.276583)" fill="#000000">
                    <path d="M20.724356,3.83703367 C19.6671746,2.65931376 18.3831486,1.70775021 16.9493195,1.03781534 C15.4213285,0.333743658 13.7520947,-0.0204257342 12.0657405,0.000909771353 C8.79147414,-0.0332270375 5.64989046,1.29810851 3.40712499,3.67915093 C2.34138339,4.80993272 1.48964612,6.12846696 0.898994147,7.56648003 C0.295501914,9.01729441 -0.00838424653,10.5747863 0,12.1493466 C-0.00410415977,13.6983043 0.28694174,15.2344607 0.851913193,16.6767409 C1.41260456,18.1275553 2.2386613,19.4588908 3.28300248,20.6110081 C4.34446399,21.7801938 5.62849002,22.7274903 7.058039,23.393158 C8.09382,23.8753405 9.20236247,24.1868388 10.3365855,24.3148519 L10.3365855,19.2583371 C9.97277809,19.1644608 9.62181097,19.0364478 9.28796421,18.8700309 C8.5132685,18.4731905 7.83273471,17.9142002 7.29772386,17.231464 C6.75415284,16.5359266 6.3475446,15.75078 6.09073939,14.910161 C5.82109393,14.0354053 5.68413115,13.1265128 5.68413115,12.2133531 C5.68413115,11.3129948 5.81253375,10.4211707 6.07361905,9.55921625 C6.32186408,8.71006313 6.72419223,7.91638232 7.26348317,7.21657774 C8.38058581,5.74016076 10.1525417,4.89527474 12.0100994,4.95928126 C12.9388782,4.94221285 13.8590969,5.1427666 14.702274,5.53533991 C15.4855298,5.91511191 16.1703437,6.46556795 16.7096347,7.14830412 C17.2532057,7.84384161 17.6683741,8.62898821 17.9337395,9.47387423 C18.207665,10.3400958 18.3446278,11.2447212 18.3446278,12.1536137 C18.3446278,13.0539721 18.2119451,13.9500633 17.9508598,14.8162848 C17.7026148,15.6654379 17.3045667,16.4633858 16.773836,17.1717246 C16.2516654,17.8715292 15.5754117,18.4475879 14.800716,18.8529625 C14.4497488,19.0321807 14.0773813,19.172995 13.6921735,19.2668713 L13.6921735,24.3063177 C14.7621952,24.1655033 15.8065363,23.8710734 16.7909563,23.4272948 C18.2290655,22.7786955 19.5302118,21.8570016 20.621634,20.7134185 C21.7002158,19.5869039 22.5519531,18.2683696 23.138325,16.8303565 C23.7289769,15.3752751 24.0328631,13.8177832 24.0244789,12.2474899 C24.0200228,10.7241349 23.733257,9.21358106 23.1725657,7.79690349 C22.599034,6.33755491 21.7729773,4.99768517 20.724356,3.83703367 Z" id="Path"></path>
                    <polygon id="Path" points="39.6979807 12.7595421 33.4362137 0.175860917 27.379891 0.175860917 27.379891 24.2636467 32.9611241 24.2636467 32.9611241 9.90911854 38.1699897 20.3592492 41.2302517 20.3592492 46.4391173 9.90911854 46.4391173 24.2636467 52.0203505 24.2636467 52.0203505 0.175860917 45.9939883 0.175860917"></polygon>
                    <polygon id="Path" points="63.7263878 0.175860917 55.3887787 24.2636467 61.1069747 24.2636467 62.7419678 18.8700309 65.3827813 18.8700309 65.3827813 15.033907 63.9104315 15.033907 66.7224485 5.77429757 69.5344655 15.033907 68.0621157 15.033907 68.0621157 18.8700309 70.6986491 18.8700309 72.3379223 24.2636467 78.0561182 24.2636467 69.7484698 0.175860917"></polygon>
                    <polygon id="Path" points="102.589576 0.175860917 96.5332528 0.175860917 91.2944266 8.48390677 86.0513203 0.175860917 79.9607569 0.175860917 87.960239 12.3883043 80.2346824 24.2636467 86.3252459 24.2636467 91.2944266 16.2884347 96.2636073 24.2636467 102.31993 24.2636467 94.5943735 12.3883043"></polygon>
                </g>
                <path d="M182.691223,21.9926391 C181.334436,21.9926391 180.243014,20.9045283 180.243014,19.5433231 C180.243014,18.1821178 181.334436,17.094007 182.699784,17.094007 C184.043731,17.094007 185.156553,18.1735836 185.156553,19.4921179 C185.156553,20.9215967 184.099372,21.9926391 182.691223,21.9926391 Z M182.691223,17.4268409 C181.55272,17.4268409 180.628222,18.3741374 180.628222,19.5518573 C180.628222,20.7295772 181.53988,21.6640723 182.691223,21.6640723 C183.821166,21.6640723 184.767066,20.721043 184.767066,19.5945283 C184.767066,18.3613361 183.872527,17.4268409 182.691223,17.4268409 Z M183.140633,20.9813361 L182.699784,19.9145609 L182.442978,19.9145609 L182.442978,20.9813361 L181.574121,20.9813361 L181.574121,18.0114338 L182.554261,18.0114338 C183.149193,18.0114338 183.346077,18.0669061 183.50444,18.1565152 C183.816886,18.3357335 183.975249,18.6088279 183.975249,18.9757986 C183.975249,19.3470364 183.825446,19.6030625 183.478759,19.7993491 L184.073691,20.9813361 L183.140633,20.9813361 L183.140633,20.9813361 Z M182.691223,19.3000983 C182.99511,19.3000983 183.110672,19.2104892 183.110672,18.9757986 C183.110672,18.7539094 182.982269,18.6600331 182.682663,18.6600331 L182.434418,18.6600331 L182.434418,19.3000983 L182.691223,19.3000983 Z" id="Shape" fill="#000000"></path>
                <g id="Group" transform="translate(77.854778, 50.142705)" fill="#000000">
                    <path d="M3.02174126,0.204820853 L3.80927722,0.204820853 L6.80533796,7.54850186 L5.81235783,7.54850186 L4.98630108,5.3978829 L1.82759705,5.3978829 L0.997260216,7.54850186 L0,7.54850186 L3.02174126,0.204820853 Z M4.71665561,4.68527701 L3.41550924,1.28866453 L2.10580269,4.68527701 L4.71665561,4.68527701 Z" id="Shape"></path>
                    <polygon id="Path" points="16.0246448 0.204820853 16.0246448 7.54850186 15.0915859 7.54850186 15.0915859 4.20736169 11.0340637 4.20736169 11.0340637 7.54850186 10.1010048 7.54850186 10.1010048 0.204820853 11.0340637 0.204820853 11.0340637 3.38381118 15.0915859 3.38381118 15.0915859 0.204820853 16.0246448 0.204820853"></polygon>
                    <path d="M17.8950428,9.01638464 C17.9849246,9.01638464 18.0748064,9.02491884 18.1646882,9.04198724 C18.25457,9.04198724 18.3230514,9.04198724 18.3701324,9.04198724 C18.4814146,9.04625435 18.5884168,9.00358333 18.6697385,8.92677551 C18.7853008,8.79876248 18.8794627,8.64941394 18.943664,8.4915312 C19.042106,8.27390905 19.1705086,7.95814356 19.3331519,7.53996766 L17.0390254,2.16342026 L17.9977648,2.16342026 L19.8253619,6.62254092 L21.4731953,2.16342026 L22.3720135,2.16342026 L19.7354801,8.95237812 C19.6712788,9.11452796 19.5771169,9.2681436 19.4615545,9.40042374 C19.3331519,9.54550518 19.1790688,9.66071691 18.9993051,9.73325762 C18.7853008,9.81859965 18.5541761,9.86127066 18.3273315,9.85700356 L18.1347276,9.85700356 C18.053406,9.84846935 17.9720843,9.83566805 17.8907627,9.81433255 L17.8950428,9.01638464 Z" id="Path"></path>
                    <path d="M26.2112513,7.65517939 C25.7918028,7.65944649 25.3809145,7.54850186 25.0299474,7.3266126 C24.6961006,7.11752465 24.4136149,6.83162887 24.2081707,6.49452788 L24.2081707,9.75459313 L23.3093525,9.75459313 L23.3093525,2.18475577 L24.1182889,2.18475577 L24.1182889,3.20032583 C24.3322933,2.87175904 24.6190591,2.59866457 24.9571859,2.40664502 C25.2995929,2.20609127 25.6933608,2.10368085 26.0914089,2.10794795 C26.4466561,2.10368085 26.7976232,2.18048867 27.1186297,2.33410431 C27.426796,2.48345284 27.7007215,2.6925408 27.9275661,2.94856686 C28.1586908,3.21312713 28.3384545,3.51609131 28.462577,3.8446581 C28.5909796,4.17749198 28.6551809,4.53166138 28.6551809,4.88583077 C28.6637411,5.36801319 28.561019,5.84592852 28.3555748,6.28543993 C28.167251,6.69508164 27.871925,7.04071683 27.4995575,7.29674289 C27.1143497,7.54423476 26.6649405,7.66798069 26.2112513,7.65517939 Z M25.9287656,6.87003278 C26.1855708,6.87429988 26.4338159,6.81456047 26.6606605,6.69934874 C26.8746648,6.58840411 27.0672687,6.43478847 27.2213518,6.25130312 C27.3754349,6.05928357 27.4952774,5.84592852 27.576599,5.61123796 C27.6622008,5.37228029 27.7007215,5.12478843 27.7007215,4.87302946 C27.7007215,4.6127363 27.6536406,4.35671023 27.5594787,4.11775257 C27.4695969,3.88306201 27.3369142,3.66543985 27.1657107,3.4819545 C26.9987873,3.29846916 26.7933431,3.14912062 26.5664985,3.04671019 C26.3396539,2.94003266 26.0871288,2.88456035 25.8346037,2.88882745 C25.6591202,2.89309455 25.4836366,2.92296426 25.3209933,2.98270367 C25.1412297,3.04671019 24.9743063,3.13205221 24.8159431,3.24299684 C24.6618599,3.34967437 24.5248972,3.4819545 24.4136149,3.62703594 C24.3066127,3.75931607 24.2338513,3.91719882 24.1953305,4.08361576 L24.1953305,5.61550506 C24.3023326,5.84592852 24.4392954,6.05928357 24.6104989,6.24703602 C24.7817024,6.43478847 24.9828664,6.58840411 25.209711,6.69934874 C25.4365556,6.81456047 25.6805206,6.87003278 25.9287656,6.87003278 L25.9287656,6.87003278 Z" id="Shape"></path>
                    <path d="M32.1562919,7.65517939 C31.7753641,7.65944649 31.3944364,7.58263867 31.0434693,7.43329013 C30.7139026,7.29247579 30.4185766,7.09192204 30.1703316,6.83589597 C29.9220866,6.57560281 29.7294827,6.27263863 29.6010801,5.93980474 C29.4641173,5.59843665 29.3956359,5.23573306 29.3956359,4.86876236 C29.3913558,4.38231284 29.5111982,3.90439751 29.7508831,3.4819545 C30.2345329,2.60719878 31.1675918,2.07381114 32.1691321,2.09514664 C32.6699023,2.08234534 33.1663923,2.21889258 33.594401,2.47918574 C33.9924491,2.72667761 34.3177357,3.0723128 34.5360201,3.4862216 C34.7585846,3.89586331 34.874147,4.36097733 34.8698669,4.82609135 C34.8698669,4.89436497 34.8698669,4.95837149 34.8698669,5.0266451 C34.8655868,5.07785032 34.8613067,5.12478843 34.8527465,5.17599364 L30.3586554,5.17599364 C30.3800559,5.50456043 30.4827779,5.82459301 30.6582615,6.10195458 C30.8209048,6.36651485 31.0477494,6.58413701 31.3173949,6.73348555 C31.5827602,6.88710119 31.8823663,6.96390901 32.1862525,6.96390901 C32.5158191,6.96390901 32.8411057,6.87856698 33.1278716,6.71641714 C33.397517,6.57560281 33.6072413,6.34517935 33.7270837,6.06355067 L34.5146197,6.28117283 C34.3904972,6.5500002 34.2107335,6.78895786 33.9924491,6.98097741 C33.7527642,7.19433247 33.4745586,7.35648231 33.1706724,7.46742694 C32.8453858,7.59543997 32.5029789,7.65517939 32.1562919,7.65517939 Z M30.3286948,4.54872978 L34.0181296,4.54872978 C33.9967292,4.22016299 33.8940071,3.90439751 33.7185235,3.62703594 C33.5516001,3.36674277 33.3247555,3.15338772 33.0551101,3.00403918 C32.5029789,2.7053421 31.8352854,2.7053421 31.2831542,3.00403918 C31.0135087,3.15338772 30.7866641,3.36674277 30.6240208,3.62703594 C30.4528173,3.90866461 30.3500952,4.2244301 30.3286948,4.54872978 Z" id="Shape"></path>
                    <path d="M38.7519056,2.94856686 C38.328177,2.94856686 37.9130086,3.0680457 37.5534813,3.29420205 C37.2110743,3.51182421 36.9457089,3.83612389 36.8087462,4.22016299 L36.8087462,7.54850186 L35.909928,7.54850186 L35.909928,2.17195446 L36.7573851,2.17195446 L36.7573851,3.39234538 C36.9328687,3.04244309 37.1853938,2.73521181 37.5021202,2.49625415 C37.7803259,2.27436489 38.1184527,2.14208476 38.4736999,2.10794795 L38.6491835,2.10794795 C38.6919843,2.10368085 38.7305051,2.10368085 38.773306,2.10794795 L38.7519056,2.94856686 Z" id="Path"></path>
                    <path d="M42.4541806,7.3095442 L42.1545745,7.44609143 C42.0047715,7.50583085 41.8506884,7.55276896 41.6966053,7.59117287 C41.5168416,7.63384388 41.3327979,7.65517939 41.1487542,7.65517939 C40.94331,7.65517939 40.7378658,7.61250837 40.549542,7.53570055 C40.3654983,7.45889273 40.2114151,7.3308797 40.104413,7.16446276 C39.9845706,6.97244321 39.9289294,6.75055395 39.9374896,6.52866469 L39.9374896,2.90162875 L39.1756342,2.90162875 L39.1756342,2.18902287 L39.9118091,2.18902287 L39.9118091,0.396840403 L40.8106273,0.396840403 L40.8106273,2.18902287 L42.0218919,2.18902287 L42.0218919,2.90162875 L40.8106273,2.90162875 L40.8106273,6.25557022 C40.8149074,6.42198717 40.8876689,6.57560281 41.0075113,6.68654743 C41.1230736,6.78042366 41.2728767,6.82736177 41.4226797,6.82309467 C41.5938832,6.82736177 41.7650866,6.79322496 41.9234499,6.72921845 C42.0732529,6.66521193 42.175975,6.62254092 42.2230559,6.59693831 L42.4541806,7.3095442 Z" id="Path"></path>
                    <path d="M48.0011731,7.54850186 L47.0895146,7.54850186 L47.0895146,4.56153108 C47.1194752,4.13055387 47.012473,3.69957666 46.7899085,3.33260596 C46.5973046,3.06377859 46.2762981,2.91016295 45.9467314,2.92296426 C45.6984864,2.92723136 45.4545214,2.98697077 45.2319569,3.10644961 C44.9922721,3.23019554 44.7825478,3.40087958 44.6070643,3.60143333 C44.4273006,3.81052129 44.2903378,4.05801315 44.2132963,4.32257342 L44.2132963,7.55703606 L43.3144781,7.55703606 L43.3144781,0 L44.2132963,0 L44.2132963,3.34114017 C44.4230205,2.96990237 44.7226266,2.66267109 45.0907141,2.44504893 C45.4502413,2.22315968 45.8654098,2.10794795 46.2891384,2.11221505 C46.5716241,2.10368085 46.8498297,2.16342026 47.1023548,2.28289909 C47.3163592,2.39384372 47.4961228,2.55599356 47.6245254,2.76081442 C47.7614882,2.97843657 47.8556501,3.22166134 47.9070112,3.4734203 C47.9669324,3.76785028 47.996893,4.06654735 47.9926129,4.36951153 L48.0011731,7.54850186 Z" id="Path"></path>
                    <path d="M51.8190105,7.65517939 C51.4380827,7.65944649 51.057155,7.58263867 50.7061879,7.43329013 C50.3766212,7.29247579 50.0812952,7.09192204 49.8330502,6.83589597 C49.5890853,6.57560281 49.3922013,6.27263863 49.2637987,5.93980474 C49.1268359,5.59843665 49.0583545,5.23573306 49.0583545,4.86876236 C49.0540744,4.38231284 49.1739168,3.90439751 49.4136017,3.4819545 C49.9015316,2.60293167 50.8388706,2.06954404 51.844691,2.09514664 C52.3454611,2.08234534 52.8419512,2.21889258 53.2699599,2.47918574 C53.6680079,2.72667761 53.9932945,3.0723128 54.211579,3.4862216 C54.4341435,3.89586331 54.5539859,4.35671023 54.5497058,4.82609135 C54.5497058,4.89436497 54.5497058,4.95837149 54.5497058,5.0266451 C54.5497058,5.07785032 54.5411456,5.12478843 54.5325855,5.17599364 L50.0384944,5.17599364 C50.0641749,5.50456043 50.166897,5.82032591 50.3381004,6.10195458 C50.5007437,6.36651485 50.7275883,6.58413701 50.9972338,6.73348555 C51.2625992,6.88710119 51.5622052,6.96390901 51.8703715,6.96390901 C52.1999382,6.96390901 52.5209447,6.87856698 52.8077105,6.71641714 C53.077356,6.57560281 53.2870802,6.34517935 53.4069226,6.06355067 L54.1944586,6.28117283 C54.0703361,6.5500002 53.8948525,6.78895786 53.672288,6.98097741 C53.4326032,7.19433247 53.1543975,7.35648231 52.8547915,7.46742694 C52.5252248,7.59970707 52.1742577,7.65944649 51.8190105,7.65517939 Z M49.9956935,4.54872978 L53.6894084,4.54872978 C53.6680079,4.22016299 53.5652859,3.90439751 53.3898023,3.62703594 C53.227159,3.36674277 52.9960343,3.15338772 52.7263888,3.00403918 C52.4524633,2.85469064 52.140017,2.77788282 51.8275706,2.78214992 C51.5194044,2.78214992 51.2155182,2.85895774 50.9458728,3.00403918 C50.6762273,3.15338772 50.4493827,3.36674277 50.2867394,3.62703594 C50.1155359,3.90866461 50.0128138,4.2244301 49.9956935,4.54872978 Z" id="Shape"></path>
                    <path d="M58.4189042,2.94856686 C57.9951757,2.94856686 57.5800072,3.0680457 57.22048,3.29420205 C56.878073,3.51182421 56.6169877,3.83612389 56.4800249,4.22016299 L56.4800249,7.54850186 L55.5683665,7.54850186 L55.5683665,2.17195446 L56.4201037,2.17195446 L56.4201037,3.39234538 C56.5955873,3.04244309 56.8481124,2.73521181 57.1605587,2.49625415 C57.4387644,2.27436489 57.7768912,2.14208476 58.1321384,2.10794795 L58.307622,2.10794795 C58.3504229,2.10368085 58.3932237,2.10368085 58.4317445,2.10794795 L58.4189042,2.94856686 Z" id="Path"></path>
                    <path d="M67.4798479,7.54850186 L66.5810297,7.54850186 L66.5810297,4.56153108 C66.6109903,4.13055387 66.5168284,3.69957666 66.3071042,3.32407176 C66.1230604,3.05524439 65.8148942,2.90589585 65.4938877,2.92296426 C65.1258002,2.92296426 64.770553,3.06377859 64.5009075,3.31553756 C64.1970214,3.58863203 63.9744569,3.94280142 63.8674547,4.33537472 L63.8674547,7.55276896 L62.9686365,7.55276896 L62.9686365,4.56579818 C63.0028772,4.13482097 62.9087153,3.69957666 62.6947109,3.31980466 C62.5149473,3.05524439 62.206781,2.90162875 61.8857745,2.92723136 C61.5219671,2.93149846 61.171,3.0680457 60.8970745,3.31127046 C60.5889082,3.58009783 60.3663437,3.93426722 60.2593416,4.32684052 L60.2593416,7.56130316 L59.3348428,7.56130316 L59.3348428,2.18475577 L60.1651796,2.18475577 L60.1651796,3.34540727 C60.3663437,2.96990237 60.6659498,2.65413689 61.0297572,2.42371343 C61.3892845,2.20609127 61.8044529,2.09514664 62.2281815,2.09941374 C62.6219494,2.08234534 63.0071573,2.21035837 63.3067633,2.46211734 C63.5764088,2.7096092 63.7518924,3.04244309 63.8032534,3.40087958 C64.0129776,3.01257338 64.3168638,2.67973949 64.6849513,2.43224763 C65.0401985,2.20609127 65.459647,2.08661244 65.8833756,2.09941374 C66.153021,2.09087954 66.4226665,2.15061896 66.6666314,2.27009779 C66.8720756,2.38104242 67.0475592,2.54319226 67.1716817,2.74374601 C67.3000843,2.96563527 67.3942462,3.20459293 67.4413271,3.4563519 C67.4969683,3.75078187 67.5226488,4.05374605 67.5226488,4.35244313 L67.4798479,7.54850186 Z" id="Path"></path>
                    <path d="M73.5918118,0.204820853 L74.3793478,0.204820853 L77.3754085,7.54850186 L76.4081089,7.54850186 L75.5820522,5.3978829 L72.3976676,5.3978829 L71.5716109,7.54850186 L70.5743507,7.54850186 L73.5918118,0.204820853 Z M75.2867262,4.68527701 L73.9855798,1.28866453 L72.6801533,4.68527701 L75.2867262,4.68527701 Z" id="Shape"></path>
                    <path d="M80.0033818,7.65517939 C79.571093,7.65944649 79.1430844,7.58263867 78.7364761,7.43329013 C78.3512683,7.29247579 78.0045813,7.06205233 77.7220956,6.76762235 L78.0773428,6.12755719 C78.3469882,6.39211746 78.6637146,6.60120541 79.0104017,6.75055395 C79.3142878,6.87429988 79.6352943,6.9383064 79.964861,6.9340393 C80.2773073,6.9468406 80.5897537,6.87429988 80.8636792,6.72495134 C81.0905238,6.60120541 81.2274866,6.36651485 81.2189264,6.11048878 C81.2317667,5.94407184 81.1632853,5.7776549 81.0348827,5.66671027 C80.8807996,5.55576564 80.705316,5.47469072 80.5212723,5.42348551 C80.3029879,5.35947899 80.0376225,5.28693827 79.7337363,5.20159625 C79.4084497,5.11198713 79.0960034,4.9967754 78.7921172,4.85169396 C78.5609926,4.74928353 78.3641086,4.59140079 78.2100254,4.39084704 C78.0730627,4.18602619 78.0045813,3.93853432 78.0174215,3.69104246 C78.0045813,3.37954408 78.1030233,3.0723128 78.287067,2.82055383 C78.4796709,2.57732907 78.7364761,2.38957662 79.027522,2.28289909 C79.369929,2.15488606 79.7337363,2.09087954 80.1018238,2.09941374 C80.4741913,2.09514664 80.8422788,2.15915316 81.1932459,2.28289909 C81.5099723,2.40237792 81.7967382,2.59013037 82.036423,2.83335513 L81.6212546,3.4648861 C81.4200905,3.25579814 81.1846857,3.0893812 80.9193204,2.97416947 C80.6453948,2.86322484 80.3500688,2.80775253 80.0547428,2.81201963 C79.8706991,2.81201963 79.6866554,2.83762224 79.5068917,2.88029325 C79.3399683,2.91869716 79.1858852,2.99550498 79.0617627,3.11498381 C78.9376402,3.24299684 78.8734389,3.41794799 78.8862792,3.59289913 C78.877719,3.74224767 78.92908,3.88732911 79.027522,3.99827374 C79.1430844,4.11348547 79.2843272,4.19882749 79.4426904,4.2500327 C79.6267342,4.31830632 79.8492987,4.39511414 80.110384,4.47192196 C80.5212723,4.58713369 80.8722394,4.70661252 81.1761256,4.82182425 C81.4414909,4.91570047 81.6811758,5.06931611 81.8737797,5.27413697 C82.0492633,5.49175912 82.1391451,5.76485359 82.1220247,6.04648227 C82.1477053,6.51586339 81.9251408,6.96817611 81.5399329,7.24127058 C81.0691234,7.53570055 80.5383926,7.68078199 80.0033818,7.65517939 Z" id="Path"></path>
                    <path d="M85.0624444,7.65517939 C84.6301556,7.65944649 84.2021469,7.58263867 83.7955387,7.43329013 C83.4103309,7.29247579 83.0636438,7.06205233 82.7811581,6.76762235 L83.1364053,6.12755719 C83.4060508,6.39211746 83.7227772,6.60120541 84.0694642,6.75055395 C84.3733504,6.87429988 84.698637,6.9383064 85.0239236,6.9340393 C85.3363699,6.9468406 85.6488162,6.87429988 85.9227418,6.72495134 C86.1495864,6.60120541 86.2865492,6.36651485 86.277989,6.11048878 C86.2908293,5.94407184 86.2223479,5.7776549 86.0939453,5.66671027 C85.9398621,5.55576564 85.7643786,5.47469072 85.5803349,5.42348551 C85.3577703,5.35947899 85.096685,5.28693827 84.7927989,5.20159625 C84.4675123,5.11198713 84.155066,4.9967754 83.8511798,4.85169396 C83.6200551,4.74928353 83.4231711,4.59140079 83.269088,4.39084704 C83.1321252,4.18602619 83.0636438,3.93853432 83.072204,3.69104246 C83.0636438,3.37954408 83.1578057,3.0723128 83.3461296,2.82055383 C83.5387335,2.57306197 83.7912586,2.38957662 84.0865846,2.28289909 C84.4289915,2.15488606 84.7927989,2.09087954 85.1608863,2.09941374 C85.5332539,2.09514664 85.9013414,2.15915316 86.2523085,2.28289909 C86.5690349,2.40237792 86.8558007,2.59013037 87.0954856,2.83335513 L86.6803171,3.4648861 C86.4919933,3.25579814 86.2608686,3.0893812 86.0083435,2.96563527 C85.734418,2.85469064 85.439092,2.79921833 85.143766,2.80348543 C84.9597223,2.80348543 84.7756785,2.82908803 84.5959149,2.87175904 C84.4289915,2.90589585 84.2749084,2.98697077 84.1507859,3.10644961 C84.0266634,3.23446264 83.9624621,3.40514668 83.9753023,3.58436493 C83.9667421,3.73371347 84.0181032,3.87879491 84.1122651,3.98973953 C84.2321075,4.10068416 84.3733504,4.19029329 84.5274335,4.2414985 C84.7114772,4.30977212 84.9340417,4.38657994 85.195127,4.46338776 C85.6060154,4.57859949 85.9569825,4.69807832 86.2565886,4.81329005 C86.5219539,4.90716627 86.7616388,5.06078191 86.9585228,5.26560277 C87.1340063,5.48322492 87.2238882,5.75631939 87.2067678,6.03794807 C87.2324483,6.50732919 87.0098838,6.9596419 86.624676,7.23273638 C86.1538665,7.53570055 85.6102955,7.68504909 85.0624444,7.65517939 Z" id="Path"></path>
                    <path d="M90.6308372,7.65517939 C90.2499095,7.65944649 89.8732619,7.58263867 89.5222948,7.43329013 C89.1970082,7.29674289 88.9059623,7.09192204 88.6619973,6.83589597 C88.4180324,6.57560281 88.2254285,6.27263863 88.0970259,5.93980474 C87.8359406,5.25280146 87.8359406,4.49752457 88.0970259,3.81478839 C88.2254285,3.4819545 88.4180324,3.17899032 88.6619973,2.91869716 C88.9059623,2.66267109 89.2012883,2.45785024 89.5265748,2.321303 C89.877542,2.17195446 90.2584697,2.09514664 90.6393974,2.09941374 C91.7565001,2.09087954 92.7666005,2.77361572 93.1689287,3.81478839 C93.4342941,4.49752457 93.4342941,5.25706856 93.1689287,5.93980474 C93.0405261,6.27263863 92.8522023,6.57560281 92.6082373,6.83589597 C92.3642724,7.09192204 92.0689464,7.29674289 91.7436598,7.43329013 C91.3969728,7.58263867 91.016045,7.65944649 90.6308372,7.65517939 Z M88.8332008,4.89009787 C88.8289207,5.24000016 88.9145224,5.58563535 89.0771657,5.89286663 C89.2269688,6.1830295 89.4495333,6.42625427 89.7234588,6.60547251 C89.9888242,6.78042366 90.3012706,6.87003278 90.6222771,6.87003278 C90.9432836,6.87003278 91.2557299,6.77615656 91.5210953,6.60120541 C91.7993009,6.42198717 92.0218654,6.1744953 92.1759486,5.88006532 C92.3385919,5.56856694 92.4241936,5.22293175 92.4199135,4.86876236 C92.4241936,4.51886007 92.3428719,4.17322488 92.1759486,3.8659936 C92.0218654,3.57583073 91.7950208,3.33260596 91.5210953,3.14912062 C91.2557299,2.97416947 90.9432836,2.88456035 90.6222771,2.88456035 C90.3012706,2.88456035 89.9888242,2.97843657 89.7234588,3.15765482 C89.4495333,3.34114017 89.2312489,3.58863203 89.0771657,3.87879491 C88.9145224,4.19029329 88.8332008,4.54019558 88.8332008,4.89009787 L88.8332008,4.89009787 Z" id="Shape"></path>
                    <path d="M96.8754838,7.65517939 C96.4945561,7.65944649 96.1136284,7.58263867 95.7626613,7.43329013 C95.4330946,7.28820869 95.1377686,7.08338784 94.8895236,6.82309467 C94.6412785,6.5628015 94.4486746,6.25983732 94.3159919,5.92700344 C94.0078257,5.12905553 94.0549066,4.2329643 94.4572348,3.4734203 C94.6797993,3.05951149 95.0136461,2.7138763 95.4202543,2.47491864 C95.8568232,2.21889258 96.3533132,2.08661244 96.8626436,2.09941374 C97.3505735,2.08661244 97.8342233,2.21035837 98.2579518,2.45785024 C98.6474397,2.67973949 98.9598861,3.01257338 99.1567701,3.41368089 L98.2579518,3.69530956 C98.1252692,3.44355059 97.9241051,3.23872974 97.67586,3.0979154 C97.132289,2.79921833 96.4688756,2.81628673 95.9381448,3.14485352 C95.6599392,3.31553756 95.4373747,3.55876232 95.2875716,3.8446581 C94.962285,4.48472326 94.962285,5.24000016 95.2875716,5.88006532 C95.4373747,6.1702282 95.6642193,6.42198717 95.9424249,6.60120541 C96.2077903,6.77615656 96.5202366,6.87003278 96.8412431,6.87003278 C97.0509674,6.87003278 97.2606916,6.83162887 97.4575756,6.75482105 C97.6458994,6.68654743 97.821383,6.58413701 97.9754661,6.45612397 C98.1081488,6.34517935 98.215151,6.20009791 98.2750722,6.03794807 L99.1738904,6.30677544 C99.0583281,6.57560281 98.8871246,6.81456047 98.6688402,7.00658002 C98.4377155,7.21566797 98.1637899,7.37781781 97.872744,7.48876244 C97.5560176,7.59543997 97.2178908,7.65517939 96.8754838,7.65517939 Z" id="Path"></path>
                    <path d="M100.226792,1.139316 L100.226792,0 L101.171792,0 L101.171792,1.139316 L100.226792,1.139316 Z M100.226792,7.54850186 L100.226792,2.15488606 L101.171792,2.15488606 L101.171792,7.55276896 L100.226792,7.55276896 L100.226792,7.54850186 Z" id="Shape"></path>
                    <path d="M102.187071,5.99954416 C102.178511,5.67524447 102.285513,5.35947899 102.486678,5.10345292 C102.696402,4.83462555 102.978888,4.6298047 103.299894,4.50605877 C103.685102,4.36524443 104.08743,4.29697081 104.498318,4.30123792 C104.755124,4.30123792 105.011929,4.32257342 105.264454,4.35671023 C105.508419,4.39084704 105.748104,4.44631935 105.979228,4.52739427 L105.979228,4.16042358 C105.996349,3.80198709 105.863666,3.4520848 105.606861,3.19605873 C105.311535,2.94856686 104.934887,2.82055383 104.549679,2.84188934 C104.254353,2.84188934 103.967588,2.89736165 103.693662,3.00403918 C103.389776,3.12778511 103.09873,3.28140075 102.829085,3.4648861 L102.495238,2.82482093 C102.820524,2.59866457 103.175772,2.41517923 103.552419,2.28289909 C103.907666,2.15915316 104.275754,2.09941374 104.652401,2.09941374 C105.251614,2.06527694 105.842266,2.27009779 106.291675,2.67120529 C106.706843,3.0893812 106.925128,3.66543985 106.890887,4.2542998 L106.890887,6.52013049 C106.882327,6.60547251 106.908007,6.69081454 106.959368,6.75908815 C107.019289,6.81882757 107.096331,6.84869728 107.181933,6.84869728 L107.181933,7.54850186 C107.092051,7.56557026 107.015009,7.57410446 106.946528,7.57837157 C106.890887,7.58263867 106.839526,7.58263867 106.783885,7.57837157 C106.604121,7.59117287 106.428637,7.52716635 106.300235,7.40342042 C106.201793,7.30100999 106.137592,7.17299696 106.120471,7.03218262 L106.099071,6.69081454 C105.855106,6.99804581 105.538379,7.24127058 105.174572,7.39488622 C104.819325,7.55276896 104.434117,7.63811098 104.040349,7.64237808 C103.706502,7.64664518 103.372656,7.56983736 103.07733,7.42048882 C102.807684,7.28394159 102.576559,7.07912074 102.413916,6.82309467 C102.264113,6.57560281 102.182791,6.28970703 102.187071,5.99954416 Z M105.713863,6.37504905 C105.795185,6.28543993 105.859386,6.1830295 105.910747,6.07635198 C105.953548,5.99954416 105.974948,5.91420213 105.983508,5.82459301 L105.983508,5.15892524 C105.765224,5.07358322 105.538379,5.0095767 105.311535,4.96690569 C105.08041,4.92423468 104.849285,4.90289917 104.618161,4.90289917 C104.224393,4.88583077 103.834905,4.97970699 103.492498,5.17599364 C103.222852,5.32534218 103.060209,5.61123796 103.064489,5.91846923 C103.064489,6.09342038 103.11157,6.26837153 103.205732,6.41772006 C103.304174,6.58413701 103.449697,6.72068424 103.620901,6.81029337 C103.830625,6.91697089 104.06603,6.97244321 104.301434,6.96390901 C104.57964,6.96390901 104.853566,6.90843669 105.110371,6.79749206 C105.332935,6.69934874 105.54266,6.5585344 105.713863,6.37504905 Z" id="Shape"></path>
                    <path d="M111.119613,7.3095442 L110.820006,7.44609143 C110.670203,7.50583085 110.51612,7.55276896 110.362037,7.59117287 C110.182274,7.63384388 109.99823,7.65517939 109.814186,7.65517939 C109.608742,7.65517939 109.403298,7.61250837 109.214974,7.53570055 C109.03093,7.45889273 108.876847,7.3308797 108.769845,7.16446276 C108.650003,6.97244321 108.594361,6.75055395 108.602922,6.52866469 L108.602922,2.90162875 L107.866747,2.90162875 L107.866747,2.18902287 L108.602922,2.18902287 L108.602922,0.396840403 L109.51458,0.396840403 L109.51458,2.18902287 L110.713004,2.18902287 L110.713004,2.90162875 L109.51458,2.90162875 L109.51458,6.25557022 C109.51458,6.42198717 109.587342,6.57986991 109.711464,6.68654743 C109.827026,6.78042366 109.976829,6.82736177 110.126632,6.82309467 C110.297836,6.82736177 110.464759,6.79322496 110.623123,6.72921845 C110.777206,6.66521193 110.875648,6.62254092 110.922729,6.59693831 L111.119613,7.3095442 Z" id="Path"></path>
                    <path d="M114.291157,7.65517939 C113.910229,7.65944649 113.529301,7.58263867 113.178334,7.43329013 C112.848768,7.29247579 112.553442,7.09192204 112.305197,6.83589597 C112.056952,6.57560281 111.864348,6.27263863 111.731665,5.93980474 C111.594702,5.59843665 111.530501,5.23573306 111.530501,4.86876236 C111.526221,4.38231284 111.646063,3.90439751 111.885748,3.4819545 C112.369398,2.60719878 113.298177,2.07381114 114.299717,2.09514664 C114.804767,2.08234534 115.301257,2.21889258 115.729266,2.47918574 C116.127314,2.72667761 116.452601,3.0723128 116.670885,3.4862216 C116.89345,3.89586331 117.009012,4.36097733 117.004732,4.82609135 C117.004732,4.89436497 117.004732,4.95837149 117.004732,5.0266451 C117.009012,5.07785032 117.009012,5.12478843 117.004732,5.17599364 L112.510641,5.17599364 C112.532041,5.50456043 112.634763,5.82459301 112.810247,6.10195458 C112.97289,6.36651485 113.199735,6.58413701 113.4651,6.73348555 C113.730465,6.88710119 114.030072,6.96390901 114.338238,6.96390901 C114.667805,6.96390901 114.993091,6.87856698 115.279857,6.71641714 C115.549502,6.57560281 115.759227,6.34517935 115.879069,6.06355067 L116.666605,6.28117283 C116.542483,6.5500002 116.366999,6.78895786 116.144434,6.98097741 C115.90475,7.19433247 115.626544,7.35648231 115.322658,7.46742694 C114.997371,7.59970707 114.646404,7.65944649 114.291157,7.65517939 Z M112.46356,4.54872978 L116.157275,4.54872978 C116.135874,4.22016299 116.033152,3.90439751 115.857669,3.62703594 C115.690745,3.36674277 115.463901,3.15338772 115.194255,3.00403918 C114.92033,2.85042354 114.607883,2.77361572 114.295437,2.78214992 C113.987271,2.78214992 113.683385,2.85895774 113.413739,3.00403918 C113.144094,3.15338772 112.917249,3.36674277 112.754606,3.62703594 C112.587682,3.90866461 112.48496,4.2244301 112.46356,4.54872978 Z" id="Shape"></path>
                    <path d="M119.88095,7.65517939 C119.448661,7.65944649 119.020653,7.58263867 118.618325,7.43329013 C118.233117,7.29247579 117.88215,7.06205233 117.599664,6.76762235 L117.954911,6.12755719 C118.224557,6.39211746 118.541283,6.60120541 118.88797,6.75055395 C119.191856,6.87429988 119.517143,6.9383064 119.842429,6.9340393 C120.154876,6.9468406 120.467322,6.87429988 120.741248,6.72495134 C120.968092,6.60547251 121.105055,6.36651485 121.096495,6.11048878 C121.109335,5.94407184 121.040854,5.7776549 120.912451,5.66671027 C120.758368,5.55576564 120.582884,5.47042362 120.398841,5.42348551 C120.176276,5.35947899 119.915191,5.28693827 119.611305,5.20159625 C119.286018,5.11198713 118.973572,4.9967754 118.669686,4.85169396 C118.438561,4.74928353 118.237397,4.59140079 118.087594,4.39084704 C117.950631,4.18602619 117.88215,3.93853432 117.89071,3.69104246 C117.88215,3.37954408 117.976312,3.0723128 118.160355,2.82055383 C118.352959,2.57732907 118.609764,2.38957662 118.90509,2.28289909 C119.247497,2.15488606 119.611305,2.09087954 119.979392,2.09941374 C120.35176,2.09514664 120.719847,2.15915316 121.070814,2.28289909 C121.387541,2.40237792 121.674307,2.59013037 121.909711,2.83335513 L121.494543,3.4648861 C121.293379,3.25579814 121.057974,3.0893812 120.792609,2.97416947 C120.518683,2.86322484 120.227637,2.80775253 119.932311,2.81201963 C119.748267,2.81201963 119.559944,2.83335513 119.38018,2.88029325 C119.213257,2.91869716 119.059174,2.99550498 118.935051,3.11498381 C118.810928,3.24299684 118.746727,3.41794799 118.759567,3.59289913 C118.751007,3.74224767 118.802368,3.88732911 118.90081,3.99827374 C119.020653,4.11348547 119.161896,4.19882749 119.315979,4.2500327 C119.500022,4.31830632 119.718307,4.39511414 119.983672,4.47192196 C120.390281,4.58713369 120.745528,4.70661252 121.045134,4.82182425 C121.310499,4.91570047 121.550184,5.06931611 121.747068,5.27413697 C121.922552,5.49175912 122.012433,5.76485359 121.995313,6.04648227 C122.016713,6.51586339 121.798429,6.96817611 121.413221,7.24127058 C120.955252,7.53570055 120.420241,7.68078199 119.88095,7.65517939 Z" id="Path"></path>
                    <path d="M131.522786,5.65390897 C131.527066,6.00807836 131.424344,6.35371355 131.22318,6.64387642 C131.026296,6.9297722 130.756651,7.16019566 130.439924,7.30527709 C130.101797,7.46742694 129.72943,7.54850186 129.357062,7.54423476 L125.860231,7.54423476 L125.860231,0.209087954 L129.519706,0.209087954 C129.840712,0.200553752 130.157439,0.298697077 130.418524,0.482182425 C130.671049,0.661400672 130.872213,0.904625435 131.000616,1.18625411 C131.133298,1.46788278 131.20178,1.77084696 131.20178,2.08234534 C131.20178,2.43651473 131.107618,2.78641702 130.927854,3.0936483 C130.74809,3.40514668 130.474165,3.64837145 130.144598,3.79345288 C130.546926,3.90439751 130.897894,4.14335517 131.146139,4.48045616 C131.390103,4.81755715 131.527066,5.23146596 131.522786,5.65390897 Z M126.80185,1.00703586 L126.80185,3.4563519 L129.121658,3.4563519 C129.331382,3.4648861 129.541106,3.40514668 129.72087,3.29420205 C129.892073,3.18325743 130.029036,3.02964179 130.123198,2.85042354 C130.22164,2.66693819 130.273001,2.46211734 130.273001,2.25302938 C130.277281,2.03540723 130.2302,1.82205217 130.131758,1.62576552 C130.041876,1.45081438 129.913474,1.29719874 129.74655,1.18625411 C129.583907,1.07530948 129.391303,1.01983716 129.194419,1.02410427 L126.80185,1.00703586 Z M130.576887,5.48749202 C130.576887,5.26986987 130.525526,5.05224771 130.427084,4.85596106 C130.332922,4.66820861 130.195959,4.51032587 130.024756,4.39084704 C129.849272,4.27136821 129.639548,4.20736169 129.425544,4.21589589 L126.79329,4.21589589 L126.79329,6.73775265 L129.352782,6.73775265 C129.571067,6.74201975 129.785071,6.67801323 129.969115,6.5628015 C130.148878,6.44758977 130.298681,6.28970703 130.401403,6.10195458 C130.508406,5.91420213 130.564047,5.70511418 130.564047,5.49175912 L130.576887,5.48749202 Z" id="Shape"></path>
                    <path d="M135.533227,2.94856686 C135.109499,2.94856686 134.69433,3.0680457 134.334803,3.29420205 C133.992396,3.51182421 133.731311,3.83612389 133.594348,4.22016299 L133.594348,7.54850186 L132.69553,7.54850186 L132.69553,2.17195446 L133.547267,2.17195446 L133.547267,3.39234538 C133.722751,3.04244309 133.975276,2.73521181 134.287722,2.49625415 C134.565928,2.27436489 134.904055,2.14208476 135.259302,2.10794795 L135.413385,2.10794795 C135.456186,2.10368085 135.498987,2.10368085 135.537508,2.10794795 L135.533227,2.94856686 Z" id="Path"></path>
                    <path d="M136.012597,5.99954416 C136.004037,5.67524447 136.111039,5.35947899 136.312203,5.10345292 C136.526208,4.83462555 136.804413,4.6298047 137.12542,4.50605877 C137.510628,4.36524443 137.912956,4.29697081 138.323844,4.30123792 C138.580649,4.30123792 138.837454,4.32257342 139.09426,4.35671023 C139.338225,4.39084704 139.577909,4.44631935 139.809034,4.52739427 L139.809034,4.16042358 C139.826155,3.80198709 139.693472,3.4520848 139.436667,3.19605873 C139.141341,2.94856686 138.764693,2.82055383 138.379485,2.84188934 C138.084159,2.84188934 137.797393,2.89736165 137.523468,3.00403918 C137.219582,3.12778511 136.928536,3.28140075 136.65889,3.4648861 L136.316483,2.82482093 C136.64177,2.59866457 136.997017,2.41517923 137.373665,2.28289909 C137.728912,2.15915316 138.096999,2.09941374 138.473647,2.09941374 C139.077139,2.06527694 139.667791,2.26583069 140.12148,2.66693819 C140.536649,3.0851141 140.754933,3.66117275 140.720693,4.2500327 L140.720693,6.51586339 C140.712132,6.60120541 140.737813,6.68654743 140.789174,6.75482105 C140.849095,6.81456047 140.926137,6.84443017 141.011739,6.84443017 L141.011739,7.54423476 C140.921857,7.56130316 140.844815,7.56983736 140.776334,7.57410446 C140.724973,7.57837157 140.669332,7.57837157 140.617971,7.57410446 C140.438207,7.58690577 140.262723,7.52289925 140.134321,7.39915332 C140.035879,7.29674289 139.971677,7.16872986 139.950277,7.02791552 L139.928877,6.68654743 C139.684912,6.99377871 139.368185,7.23700348 139.004378,7.39061912 C138.649131,7.54850186 138.263923,7.63384388 137.870155,7.63811098 C137.540588,7.65091228 137.211021,7.58263867 136.907135,7.44609143 C136.63749,7.3095442 136.410645,7.10472334 136.243722,6.84869728 C136.089639,6.59267121 136.008317,6.29824123 136.012597,5.99954416 Z M139.539389,6.37504905 C139.62071,6.28543993 139.684912,6.1830295 139.736273,6.07635198 C139.779074,5.99954416 139.800474,5.91420213 139.809034,5.82459301 L139.809034,5.15892524 C139.59075,5.07358322 139.363905,5.0095767 139.137061,4.96690569 C138.905936,4.92423468 138.674811,4.90289917 138.443686,4.90289917 C138.049918,4.88583077 137.660431,4.97970699 137.322304,5.17599364 C137.052658,5.32534218 136.885735,5.61123796 136.890015,5.91846923 C136.890015,6.09342038 136.941376,6.26837153 137.031258,6.41772006 C137.1297,6.58413701 137.275223,6.72068424 137.446426,6.81029337 C137.656151,6.91697089 137.891555,6.97244321 138.12696,6.96390901 C138.405166,6.96390901 138.679091,6.90843669 138.935896,6.79749206 C139.158461,6.69934874 139.368185,6.5585344 139.539389,6.37504905 L139.539389,6.37504905 Z" id="Shape"></path>
                    <path d="M146.879737,7.54850186 L145.980919,7.54850186 L145.980919,4.56153108 C146.01088,4.13055387 145.920998,3.69957666 145.715554,3.31553756 C145.53579,3.05097729 145.231904,2.90162875 144.910898,2.92296426 C144.654092,2.92296426 144.397287,2.98697077 144.166162,3.10644961 C143.922198,3.23019554 143.699633,3.40087958 143.511309,3.60143333 C143.322985,3.80625419 143.181743,4.05374605 143.100421,4.32257342 L143.100421,7.55703606 L142.201603,7.55703606 L142.201603,2.18048867 L143.03622,2.18048867 L143.03622,3.34114017 C143.177462,3.0893812 143.365786,2.86749194 143.592631,2.6840066 C143.823756,2.49625415 144.089121,2.35117271 144.371607,2.25302938 C144.658372,2.15061896 144.962259,2.09941374 145.270425,2.09941374 C145.54007,2.09087954 145.809716,2.15061896 146.053681,2.27009779 C146.259125,2.37677532 146.434608,2.54319226 146.554451,2.74374601 C146.682853,2.96563527 146.768455,3.20459293 146.811256,3.4563519 C146.862617,3.75078187 146.892578,4.05374605 146.888298,4.35244313 L146.879737,7.54850186 Z" id="Path"></path>
                    <path d="M147.949759,4.88156367 C147.941199,4.39938124 148.043921,3.92573302 148.249365,3.49048871 C148.450529,3.0851141 148.750135,2.73521181 149.122503,2.47918574 C149.494871,2.22742678 149.94,2.09514664 150.393689,2.09941374 C150.808857,2.09514664 151.219745,2.21462547 151.566432,2.44078183 C151.895999,2.65413689 152.169925,2.93576556 152.375369,3.26859945 L152.375369,0 L153.287027,0 L153.287027,6.51586339 C153.278467,6.60120541 153.304148,6.68654743 153.351229,6.75908815 C153.41115,6.81882757 153.492472,6.85296438 153.573793,6.84869728 L153.573793,7.54850186 C153.44111,7.57410446 153.304148,7.58690577 153.167185,7.59117287 C152.991701,7.59117287 152.824778,7.52716635 152.696375,7.40768752 C152.572253,7.30527709 152.499491,7.15166145 152.490931,6.99377871 L152.490931,6.5500002 C152.281207,6.89136829 151.985881,7.17299696 151.630634,7.36501651 C151.288227,7.56130316 150.903019,7.66371359 150.509251,7.66371359 C150.154004,7.66798069 149.807317,7.59117287 149.48631,7.44609143 C149.173864,7.30100999 148.891378,7.09192204 148.664534,6.83589597 C148.189444,6.30250833 147.928359,5.61123796 147.932587,4.89863207 L147.949759,4.88156367 Z M152.388209,5.67097737 L152.388209,4.13482097 C152.302607,3.89586331 152.161365,3.68250825 151.985881,3.50329001 C151.801837,3.31980466 151.592113,3.16618902 151.356708,3.05097729 C150.911579,2.82482093 150.380848,2.82482093 149.935719,3.05097729 C149.721715,3.16192192 149.529111,3.31553756 149.375028,3.50329001 C149.216665,3.69530956 149.096822,3.90866461 149.015501,4.14335517 C148.934179,4.38231284 148.891378,4.6340718 148.891378,4.89009787 C148.891378,5.15039104 148.938459,5.4064171 149.032621,5.64964187 C149.122503,5.88433243 149.255186,6.09768748 149.426389,6.28117283 C149.593312,6.46465818 149.798757,6.60973961 150.025601,6.71215004 C150.256726,6.81456047 150.504971,6.87003278 150.757496,6.86576568 C150.93298,6.86149858 151.104183,6.83162887 151.271107,6.77188946 C151.45087,6.70788294 151.617794,6.62254092 151.776157,6.51586339 C151.93024,6.40918586 152.067203,6.28117283 152.178485,6.13182429 C152.281207,5.99527705 152.353968,5.83739431 152.388209,5.67097737 Z" id="Shape"></path>
                </g>
            </g>
        </g>
    </g>
</svg>